<svg xmlns="http://www.w3.org/2000/svg" viewBox="0 0 600 600">
	<path
		fill="#363636"
		d="M0 256V0h512v512H0V256z"
		transform="translate(0 -452.36) matrix(1.1719 0 0 1.1901 0 443.32)"
	></path>
	<path
		fill="#424242"
		d="M6.814 501.4c1.679-123.55 12.837-247.16 3.792-370.67C8.93 87.165 7.296 43.784 6.886.19c11.823 34.893 4.123 72.066 8.054 108.01.605 95.044 8.964 190.32-.782 285.16-2.341 36.731-3.841 73.527-3.827 110.34-2.666 8.98-5.205 1.955-3.517-2.295zm35.125-25.15c-3.179-125.7-9.012-251.66.35-377.23.091-33.006-1.4-66.074 1.235-99.02.4 115.88 3.277 218.66-2.822 328.56 6.64 65.97.299 101.84 8.348 155.6 1.194 22.219-12.517 19.49-7.094-.58l.055-3.667zm10.498 32.5c-4.728-177.23-3.952-333.12-.185-496.2 14.787-3.938 1.08 33.058 5.263 44.161-12.609 156.39 5.707 302.75 1.764 447.87-.937 2.606-3.722 5.543-6.842 4.172zM64.48 502c4.606-39.39 2.294-79.04-2.14-118.29-6.205-89.43-6.656-179.17-1.85-268.67 1.466-34.208-.025-69.561 5.56-102.96 5.267 18.734-.985 41.842-.844 62.327-1.55 24.817-2.75 49.713-1.544 74.573 5.35-47.15 1.795-94.968 9.52-141.9-1.506 67.218-8.65 134.23-8.433 201.53-1.338 73.723 4.1 147.37 12.6 220.53 1.28 21.885.491 60.196-2.488 71.842-1.965-35.12 3.498-70.53-3.53-105.35-13.279-364.96-12.07-165.81.34 62.74-.43 10.898 2.78 45.058-7.19 43.625zm-5.876-243.73c-3.092 1.816 3.248 2.117 0 0zm33.89 251.19c4.425-77.77 2.776-155.73 6.418-233.54C76.02 215.88 84.795 150.57 88.197 88.08c8.721-22.85-8.336-74.557 12.203-79.14 4.531 40.004-7.348 81.615 7.42 120.54 11.974 25.459 13.775 53.398 12.792 81.154-4.874 56.428 3.692 127.48 11.28 190.78 3.146 28.045 2.54 56.222 5.163 84.269 1.124 13.766-11.902 25.17-9.055 4.086-1.93-29.52 2.898-59.823-3.08-88.867-20.622-2.23-10.911 36.585-16.33 51.892-3.765 18.858-.725 44.373-12.08 58.666l-2.289-.705-1.724-1.288zm12.916-6.96c6.58-17.962.547-66.886 16.94-66.208 3.3 18.63 4.531 53.828-.788 62.68-1.341-11.772 8.776-49.666-7.247-43.941-2.139 14.22.634 32.618-8.904 47.469zm32.202 2.75c6.98-76.491-4.453-152.84-12.463-228.75-3.41-43.114-3.244-86.448-.96-129.62-1.274-16.683-33.836-41.094-3.304-41.474 9.51-23.074-1.615-48.772 1.185-72.994 7.793-38.624-8.46 33.789 9.992 23.083.969-11.832 6.44-55.83 3.702-22.398-11.982 108.2-17.345 218.41 2.509 326.03 3.658 39.01 3.669 78.232 6.142 117.32-7.824 7.446 1.508 22.79-6.802 28.809zm5.632 1.25c7.915-25.138.164-52.147 10.028-76.391 3.094-13.963-8.722-54.714-1.694-54.075 6.242 42.613 4.262 86.333-4.544 128.25-.463 1.96-2.267 1.792-3.79 2.212zm10.096 2.75c7.675-26.102 4.456-53.86 11.365-79.603-4.894-88.305-24.95-176.65-23.29-259.32 3.215-29.474-8.624-60.19 4.25-88.622 2.946-22.438-4.532-50.67 5.37-68.464 15.181-25.055 3.9 23.093 3.25 32.228-8.42 70.816-1.865 117.84-3.37 213.6 17.979 65.9 21.922 133.4 18.675 196.44-2.558 12.532-4.787 57.899-16.251 53.737zm38.26-6.5c5.876-82.585 8.266-165.84-1.421-248.24-2.902 21.359-18.936 19.28-16.385-1.507-8.54-44.68-17.351-91.262-4.436-136.07 6.539-29.721 16.617-58.917 18.188-89.525-4.202 8.26-14.673 46.27-8.314 18.053-3.441-11.568 15.98-52.29 14.283-21.81-2.115 9.3-9.487 45.923-1.964 39.745 2.617-19.805-.731-69.771 32.023-55.181 3.155 35.664 4.595 71.495 13.838 106.2-.321 24.37 2.11 57.667-12.69 76.003-8.242-17.686 1.09-45.603-13.006-58.38-18.686 32.418-4.312 49.208-7.176 106.3-14.467 95.28 24.029 177.94 6.047 266.79-3.925-19.87-1.757 10.485-6.462-8.676-3.151-27.773 4.647-55.988-4.636-83.32-1.927 29.801 7.57 61.39-3.244 90.314-5.701 7.739-4.781 6.961-4.645-.703zm2.006 2.52c-3.092 1.817 3.248 2.118 0 0zm7.03-183.36c.304-40.417-4.534-92.032-7.698-138.11-6.341 8.398-7.359 49.614-16.737 20.718-13.08-32.332 1.773-66.35 11.635-97.324 4.878-12.577-7.252-23.89-5.99-5.161-8.095 33.416-16.819 68.093-10.832 102.62-6.03 21.587 20.958 33.752 21.243 11.959 6.559 21.466 2.769 45.28 6.013 67.675 1.328 25.592 1.99 51.242 1.027 76.86 1.589-13.023.768-26.166 1.34-39.24zm-19.288-90.451c-2.81-7.622 3.81 4.13 0 0zm33.474 271.04c-7.456-11.866 13.136-37.835 10.308-11.258 1.793 7.567-5.302 32.212-10.308 11.258zm13.16 8.25c3.328-36.091-7.904-71.1-14.102-106.09-6.096-74.271-10.707-149.43.128-223.51 6.691 5.106 5.052 49.114 14.632 29.026-1.284-19.782 22.345-22.186 14.812.351 5.597 87.307 3.014 174.87 7.005 262.24-6.45-87.502-2.242-175.48-10.546-262.88-14.248-6.691-9.476 44.191-22.06 17.023-12.612 38.854-6.726 80.396-6.618 120.46 3.442 53.39 20.757 105.77 17.423 159.51zm25.566-26.5c-4.22-65.566-5.777-202.21-5.026-303.65 7.02-59.598 10.79-119.88 5.724-179.8 12.267 8.192 2.06 56.02 5.344 21.018-1.476-17.208 3.88-18.466 2.542-.818-1.168 61.606 2.076 123.33-3.925 184.78-2.051 26.634 3.333 52.874-1.194 79.44-1.26 73.54 5.137 147.02 4.453 220.58-11.967 12.023-5.997-16.65-7.918-21.552zm6.039-8c-1.73-14.482.012-33.635-3.32-45.221 1.006 15.06-1.787 30.643 3.32 45.22zm13.299 33c-4.443-78.11-1.945-158.25-.484-254.51 5.315-69.448 11.485-139.38 2.459-208.81-2.816-11.423 1.281-58.307 3.896-26.381 2.397 39.385 4.063 78.844 4.915 118.3.176 24.683-.198 49.364-.509 74.044 12.41-26.934 3.523-57.918 6.138-86.494-2.96-34.912-3.583-69.951-7.45-104.7 9.32-28.143 11.247 17.257 11.12 27.088 9.21 167.22-13.286 310.48-4.275 461.46-22.072-95.888.317-202.1-1.833-292.62-13.288 34.965-3.817 66.052-11.49 122.71-1.138 40.066-.334 80.212 3.139 120.15-11.518 17.904 13.867 33.03-5.626 49.775zm41.186.5c-1.881-42.287-12.358-83.945-9.82-126.47-2.573-122.29 9.164-244.28 9.69-366.53 9.786-13.416 1.691 30.528 2.428 38.892-2.36 105.02-12.197 233.98-7.849 351.65-3.266 29.054 14.115 48.168 10.692 76.789-.778 8.408 7.4 22.393-5.141 25.675zm10.415-2.5c5.293-44.25-4.963-88.016-12.162-131.32-5.793-58.265-1.167-116.81.21-175.17 6.173 32.72-.101 66.239 2.102 99.317-.125 38.867 6.995 77.176 13.135 115.32 2.379 30.908 2.195 62.067-1.471 92.868l-1.197.119zm7.884 3.23c2.904-62.973 1.806-126.6-11.188-188.44-5.068-90.85-3.653-182.2 7.705-272.55-.715-11.295-2.507-49.041 14.404-37.913-1.248 44.103-10.98 87.366-15.517 131.11-4.109 150.87-2.35 145.67 9.266 191.47 2.504 36.091 5.87 72.559 5.91 108.55-1.485 22.941 7.77 53.416-9.703 66.913l-.31.84-.567.032zm15.99-68.98c1.582-122.52-16.23-245.44.066-367.56.01-16.439-1.273-60.105 3.993-59.1-4.605 111.34-10.617 222.94-2.464 334.26 1.84 53.9 3.233 107.83 2.57 161.77-11.068-21.861-.328-46.404-4.165-69.376zm37.268 65.75c-.085-36.525 2.216-73.034 6.29-109.32 29.176 11.87 3.933 49.079 9.514 72.245-.459 10.809 4.922 45.08-15.804 37.079zm22.712 0c2.246-12.724 5.099-55.084 5.067-21.311-.155 7.33-1.202 14.93-5.067 21.311zm31.552-3c-1.869-128.49 20.836-257.1 4.084-385.36-6.439-38.43-5.388-77.314-3.87-116.09 10.915 46.484 1.125 96.792 9.104 110.27 8.134 103 2.624 206.36 1.135 309.49-5.468 27.125-2.32 63.442-9.775 85.429zm7.482-5c4.116-33.418 14.722-66.42 8.044-100.28-1.811-81.171.018-162.36.345-243.53 1.396 110.76 1.366 221.84 2.384 332.42.161 7.157-13.246 33.002-10.774 11.398zm8.225-125.98c-3.092 1.816 3.247 2.117 0 0zm16.608 115.51c5.344-7.91-5.267-25.516-3.966-6.637 4.048-67.882 11.287-136.44-.437-203.97-3.112-59.168 2.573-118.39 1.412-177.65 2.287-31.776-4.117-66.116 4.962-96.33 24.308-17.71 47.477 13.077 33.68 35.054 5.356 142.29 3.732 284.71 2.485 427.07 4.014 20.134-6.76 47.755-28.903 44.544-8.513-3.532-11.953-13.84-9.233-22.087zm24.14-258.78c2.976-63.817.91-127.79-4.339-191.44-12.492 24.572-2.415 54.173-7.055 80.695.337 39.524 4.033 78.963 9.769 118.05.98-2.36 1.472-4.762 1.625-7.31zm-4.283-9.417c-1.303-5.882 2.28 1.854 0 0zm17.525-96.312c-3.093 1.817 3.247 2.117 0 0zm0-4c-3.093 1.817 3.247 2.117 0 0zM320.06 505.58c-1.303-5.882 2.28 1.854 0 0zm-106.31-16.349c-5.2-10.99 5.12-.314 0 0zm155.93-15.42c-13.027 2.86 5.594-20.978-9.077-12.262-2.23-98.242-7.792-196.49-6.487-294.77 1.084-25.638 4.324-51.529 3.715-76.958 15.618-19.028 10.098 23.307 13.74 34.13 1.368 25.261 5.408 50.114 11.002 74.682 14.127 57.126 19.2-58.224 22.85-77.716 4.87-19.869-1.336-48.594 13.33-62.845 8.054 21.594 6.444 46.133 11.204 68.822 9.667 76.18 12.966 154.72-2.313 230.13-14.27-28.485-14.479-63.4-23.326-94.363 6.223 20.138-10.51-17.43-10.756 7.95-5.61 40.494-10.868 81.078-16.488 121.6-3.523 27.064-4.495 54.742-6.384 81.686l-1.01-.089zm-5.081-86.538c-3.093 1.817 3.247 2.117 0 0zm12.965-136.88c-4.878-32.036-7.76-64.37-13.83-96.223-10.144 32.581-4.54 67.52-4.492 101.09 1.427 28.952.374 58.122 4.916 86.845 20.886 13.332 14.012-83.322 13.406-91.714zm50.495 50.153c10.254-66.482 3.974-134.29-8.133-200.08-20.22 27.952-8.855 63.891-14.174 95.514 1.865 35.652 6.039 72.245 22.306 104.56zm-276.08 172.52c-1.564-7.663 3.608 2.98 0 0zm192.62-13.81c1.285-13.41 1.82 6.869 0 0zm88.715-23.759c-2.505-14.372 4.309-18.897 2.173-.724.356 12.562-3.867 21.342-2.173.724zm-20.45 16.318c-4.725-12.203 2.303-39.546 1.207-10.868.047 3.645-.035 7.371-1.206 10.868zm-294.89-7.25c-1.256-6.08 3.19 2.857 0 0zm161.19-5.06c-.113-7.668 1.404 4.178 0 0zm.078-7.5c.756-8.126.756 8.127 0 0zm-145.19-1.416c-1.302-5.882 2.28 1.853 0 0zm145.15-6.58c.55-6.89.55 6.89 0 0zm-272.96-34.5c9.399-119.26-1.186-102.54 1.623-3.73-.311 8.81-2.079 21.54-1.623 3.73zm225.32 7.873c.167-18.87-12.146-67.601.498-69.034 5.389 22.42 10.012 44.973-.498 69.034zm-187.94-17.12c-2.728-24.204 3.881-10.842.792 5.428zm4.015-23.917c-6.831-4.11 2.276-6.666 0 0zm94.333-15.22c-7.996-51.204-7.761-103.31-9.072-155.01-.854-54.347-4.818-66.827 9.581-172.57 6.231 12.66-7.253 51.423-5.684 73.579-2.442 54.473-1.354 109.1-.45 163.58 13.904 26.91-19.879 73.65 5.625 90.41zm-101-66.78c-27.333 158.3-13.667 79.149 0 0zm148.39-14.75c-7.081-5.538 2.74-7.258 0 0zm92.685-30.001c-1.302-5.882 2.28 1.853 0 0zm1-15c-1.302-5.882 2.28 1.853 0 0zm-47-5c-1.302-5.882 2.28 1.853 0 0zm200.92-14.14c3.808-3.6-.754 6.917 0 0zm-123.38-32.44c1.024-51.604 3.2-103.32 10.598-154.45 8.093 27.809-7.003 55.37-5.555 83.467-1.877 28.732-1.088 57.663-5.122 86.234-.378-5.081.113-10.166.08-15.25zm197.45-8.417c-1.302-5.882 2.28 1.854 0 0zm-56.426-1.335c-1.649-38.762-9.6-59.871-7.66-142.93 13.432 3.767 2.781 39.72 6.673 55.558.923 29.1 4.337 58.306.987 87.376zm-2.049-93.977c-3.092 1.816 3.247 2.117 0 0zm58.68 86.737c.756-8.127.756 8.126 0 0zm-296.8-9.101c-3.254-13.074 3.903 4.915 0 0zm29.53-1.81c-5.41-40.435-10.33-80.937-15.03-121.46 11.342 19.39 5.635 46.11 9.68 68.329-1.03 13.468 13.386 28.933 13.794 6.098 3.332-19.533-3.662-59.538.103-66.735 1.582 37.562 4.353 75.935-5.255 112.73 2.504-9.722-1.181.993-3.292 1.04zm96.667-.758c.686-21.22 3.78-67.731 6.173-72.615-.558 24.305-3.05 48.52-6.173 72.615zm-180.41-5.62c.635-12.321 10.085-40.22 5.254-11.541-.637 4.2-2.002 8.58-5.254 11.54zm349.74-14.21c1.28-8.5 1.53 9.73 0 0zm-264.86-10.41c-2.917-4.718 5.555 1.918 0 0zm265.11-10.59c.285-9.356.992 6.115 0 0zm-400.25-6.451c-6.37-41.204 3.36-106.66 7.3-32.543-1.33 10.862-1.66 22.856-7.3 32.543zM388.547 73.8c.87-18.835-14.6-66.11 8.73-64.037 6.03 21.837-7.16 42.595-8.73 64.037zm33.494-.195c-1.302-5.882 2.28 1.854 0 0zm-193.43-5.084c2.022-4.355.79 7.254 0 0zm-111.56-13.917c-1.302-5.882 2.28 1.854 0 0zm211-26c-1.302-5.882 2.28 1.854 0 0z"
		transform="translate(0 -452.36) matrix(1.1719 0 0 1.1901 0 443.32)"
	></path>
</svg>
